<svg width="30" height="16" viewBox="0 0 30 16" fill="none" xmlns="http://www.w3.org/2000/svg">
<path d="M28.5487 3.71356C29.3263 3.00843 29.3263 1.78647 28.5487 1.08134V1.08134C27.872 0.467657 26.8401 0.467197 26.1629 1.08028L17.0887 9.29435C16.9488 9.42101 16.7776 9.50807 16.5928 9.54656V9.54656C16.3885 9.58913 16.2012 9.691 16.0545 9.83944L15.9599 9.93513C15.6766 10.2216 15.2905 10.3828 14.8877 10.3828H14.7602C14.2696 10.3828 13.8 10.184 13.4585 9.8318L13.125 9.48778L3.83714 1.08028C3.15987 0.467198 2.12805 0.467657 1.45132 1.08134V1.08134C0.673748 1.78647 0.673748 3.00843 1.45132 3.71356L13.6565 14.7817C14.4188 15.4729 15.5812 15.4729 16.3435 14.7817L28.5487 3.71356Z" fill="#12121C"/>
</svg>
