<svg width="30" height="16" viewBox="0 0 30 16" fill="none" xmlns="http://www.w3.org/2000/svg">
<path d="M1.45132 12.2864C0.673744 12.9916 0.673747 14.2135 1.45132 14.9187V14.9187C2.12805 15.5323 3.15987 15.5328 3.83714 14.9197L12.9113 6.70565C13.0512 6.57899 13.2224 6.49193 13.4072 6.45344V6.45344C13.6115 6.41087 13.7988 6.309 13.9455 6.16056L14.0401 6.06487C14.3234 5.77839 14.7095 5.61717 15.1123 5.61717H15.2398C15.7304 5.61717 16.2 5.81597 16.5415 6.1682L16.875 6.51222L26.1629 14.9197C26.8401 15.5328 27.8719 15.5323 28.5487 14.9187V14.9187C29.3263 14.2135 29.3263 12.9916 28.5487 12.2864L16.3435 1.21835C15.5812 0.527069 14.4188 0.527071 13.6565 1.21835L1.45132 12.2864Z" fill="#12121C"/>
</svg>
