<svg width="100" height="101" viewBox="0 0 100 101" fill="none" xmlns="http://www.w3.org/2000/svg">
<rect y="0.800781" width="100" height="100" rx="24.2869" fill="#BB63FF"/>
<g clip-path="url(#clip0_756_2629)">
<path d="M58.9609 39.0086C58.8071 38.789 58.6314 38.5913 58.4557 38.4156H58.4337C57.7494 37.7284 56.9148 37.2096 55.9958 36.9001L52.9648 35.9118C52.7451 35.8239 52.5255 35.6702 52.3937 35.4725C52.2466 35.2764 52.1692 35.0367 52.1741 34.7916C52.1692 34.5465 52.2466 34.3068 52.3937 34.1107C52.5255 33.9131 52.7232 33.7593 52.9648 33.6715L55.9958 32.6831C56.9182 32.3756 57.7309 31.8485 58.4118 31.1676C59.0487 30.5087 59.5539 29.696 59.8833 28.8175V28.7516L60.8717 25.7206C60.9596 25.501 61.1133 25.2813 61.311 25.1495C61.5071 25.0024 61.7467 24.9251 61.9919 24.9299C62.2335 24.9299 62.4751 25.0178 62.6727 25.1495C62.8704 25.2813 63.0242 25.479 63.112 25.7206L64.1004 28.7516C64.4079 29.6741 64.935 30.5087 65.6159 31.1896C66.2967 31.8924 67.1314 32.3976 68.0538 32.7051L71.0848 33.6934H71.1507C71.3704 33.7813 71.568 33.935 71.7218 34.1327C71.8755 34.3304 71.9414 34.572 71.9414 34.8136C71.9463 35.0587 71.8689 35.2984 71.7218 35.4944C71.59 35.6921 71.3923 35.8459 71.1507 35.9337L68.1197 36.9221C67.1973 37.2296 66.3626 37.7567 65.6818 38.4376C64.9789 39.1185 64.4738 39.9531 64.1663 40.8756L63.1559 43.9065V43.9724C63.0681 44.1701 62.9143 44.3458 62.7386 44.4776C62.5425 44.6248 62.3029 44.7021 62.0577 44.6972C61.8126 44.7021 61.573 44.6248 61.3769 44.4776C61.1731 44.3392 61.0191 44.139 60.9376 43.9065L59.9492 40.8756C59.7296 40.1947 59.4001 39.5577 58.9609 39.0086ZM75.8729 47.3548L74.1817 46.8277C73.6546 46.652 73.1933 46.3665 72.82 45.9931C72.4466 45.5978 72.1611 45.1365 71.9853 44.6313L71.4363 42.9621C71.3893 42.8312 71.3054 42.7168 71.1947 42.6326C71.0887 42.5478 70.957 42.5016 70.8213 42.5016C70.6855 42.5016 70.5538 42.5478 70.4479 42.6326C70.3381 42.7205 70.2502 42.8303 70.2063 42.9621L69.6572 44.6313C69.5034 45.1365 69.2179 45.5978 68.8445 45.9711C68.4712 46.3445 68.0099 46.63 67.5047 46.8058L65.8135 47.3548C65.6818 47.3988 65.5719 47.4866 65.4841 47.5964C65.3993 47.7024 65.353 47.8341 65.353 47.9698C65.353 48.1056 65.3993 48.2373 65.4841 48.3432C65.5719 48.453 65.6818 48.5409 65.8135 48.5848L67.5047 49.1339C68.0099 49.2877 68.4931 49.5951 68.8665 49.9685C69.2399 50.3419 69.5254 50.8251 69.7011 51.3303L70.2502 52.9995C70.2941 53.1313 70.382 53.2411 70.4918 53.329C70.5978 53.4138 70.7295 53.46 70.8652 53.46C71.0009 53.46 71.1326 53.4138 71.2386 53.329C71.3484 53.2411 71.4363 53.1313 71.4802 52.9995L72.0293 51.3303C72.205 50.8031 72.4905 50.3419 72.8639 49.9685C73.2592 49.5951 73.7205 49.3096 74.2256 49.1339L75.9168 48.5848C76.0486 48.5409 76.1585 48.453 76.2463 48.3432C76.3342 48.2334 76.3561 48.1016 76.3561 47.9698C76.3561 47.838 76.3342 47.7063 76.2463 47.5964C76.1585 47.4866 76.0135 47.4207 75.8729 47.3548ZM66.5603 52.3626L67.1314 54.1197C67.2412 54.4272 67.3949 54.6688 67.5706 54.9323V68.2863C67.5706 71.0098 65.3523 73.2281 62.6288 73.2281H37.3705C34.647 73.2281 32.4287 71.0098 32.4287 68.2863V34.2425C32.4287 31.519 34.647 29.3007 37.3705 29.3007H55.5126C55.3588 29.3885 55.1831 29.4764 55.0294 29.5423L51.9105 30.5526C51.032 30.8821 50.2632 31.4312 49.7361 32.1999C49.1904 32.9536 48.8982 33.8611 48.9015 34.7916C48.9015 35.736 49.187 36.6366 49.7141 37.3833C49.8855 37.6293 50.1051 37.827 50.3182 38.0181L50.417 38.1081H40.6651C39.7646 38.1081 39.0178 38.8549 39.0178 39.7554C39.0178 40.6559 39.7646 41.4027 40.6651 41.4027H56.5668L56.6437 41.5301C56.7171 41.6425 56.7796 41.7616 56.8304 41.8859L57.8407 44.9828C58.1482 45.8613 58.7193 46.6081 59.488 47.1572C60.2567 47.6843 61.1572 47.9698 62.0797 47.9698C62.0797 48.7825 62.3213 49.5732 62.8045 50.2541C63.2877 50.9349 63.9466 51.4181 64.8032 51.7256L66.5603 52.3626ZM40.6651 63.3444H59.3343C60.2348 63.3444 60.9815 62.5977 60.9815 61.6971C60.9815 60.7966 60.2348 60.0499 59.3343 60.0499H40.6651C39.7646 60.0499 39.0178 60.7966 39.0178 61.6971C39.0178 62.5977 39.7646 63.3444 40.6651 63.3444ZM40.6651 52.3626H59.3343C60.2348 52.3626 60.9815 51.6158 60.9815 50.7153C60.9815 49.8148 60.2348 49.068 59.3343 49.068H40.6651C39.7646 49.068 39.0178 49.8148 39.0178 50.7153C39.0178 51.6158 39.7646 52.3626 40.6651 52.3626Z" fill="white"/>
</g>
<defs>
<clipPath id="clip0_756_2629">
<rect width="52.7129" height="52.7129" fill="white" transform="translate(23.6436 24.4453)"/>
</clipPath>
</defs>
</svg>
