<svg width="101" height="101" viewBox="0 0 101 101" fill="none" xmlns="http://www.w3.org/2000/svg">
<rect x="0.117676" y="0.117188" width="100" height="100" rx="24.2869" fill="#BB63FF"/>
<path d="M46.8741 31.5708L43.5955 32.797C43.3346 32.8927 43.1607 33.1449 43.1607 33.4232C43.1607 33.7015 43.3346 33.9537 43.5955 34.0493L46.8741 35.2755L48.1003 38.5541C48.1959 38.815 48.4481 38.9889 48.7264 38.9889C49.0047 38.9889 49.2569 38.815 49.3526 38.5541L50.5788 35.2755L53.8573 34.0493C54.1182 33.9537 54.2922 33.7015 54.2922 33.4232C54.2922 33.1449 54.1182 32.8927 53.8573 32.797L50.5788 31.5708L49.3526 28.2922C49.2569 28.0314 49.0047 27.8574 48.7264 27.8574C48.4481 27.8574 48.1959 28.0314 48.1003 28.2922L46.8741 31.5708ZM30.4725 62.2434C28.8462 63.8696 28.8462 66.5133 30.4725 68.1483L33.4815 71.1573C35.1077 72.7835 37.7514 72.7835 39.3864 71.1573L72.5461 37.9888C74.1724 36.3626 74.1724 33.7189 72.5461 32.0839L69.5371 29.0836C67.9109 27.4574 65.2671 27.4574 63.6322 29.0836L30.4725 62.2434ZM68.6066 35.0407L59.4753 44.172L57.449 42.1458L66.5803 33.0144L68.6066 35.0407ZM27.1156 38.0497C26.7243 38.1976 26.4634 38.5715 26.4634 38.9889C26.4634 39.4064 26.7243 39.7803 27.1156 39.9282L32.0291 41.7718L33.8728 46.6853C34.0206 47.0767 34.3946 47.3376 34.812 47.3376C35.2294 47.3376 35.6034 47.0767 35.7512 46.6853L37.5949 41.7718L42.5084 39.9282C42.8998 39.7803 43.1607 39.4064 43.1607 38.9889C43.1607 38.5715 42.8998 38.1976 42.5084 38.0497L37.5949 36.2061L35.7512 31.2925C35.6034 30.9012 35.2294 30.6403 34.812 30.6403C34.3946 30.6403 34.0206 30.9012 33.8728 31.2925L32.0291 36.2061L27.1156 38.0497ZM57.7273 60.3127C57.3359 60.4606 57.075 60.8345 57.075 61.252C57.075 61.6694 57.3359 62.0433 57.7273 62.1912L62.6408 64.0348L64.4845 68.9484C64.6323 69.3397 65.0062 69.6006 65.4237 69.6006C65.8411 69.6006 66.2151 69.3397 66.3629 68.9484L68.2066 64.0348L73.1201 62.1912C73.5114 62.0433 73.7723 61.6694 73.7723 61.252C73.7723 60.8345 73.5114 60.4606 73.1201 60.3127L68.2066 58.4691L66.3629 53.5556C66.2151 53.1642 65.8411 52.9033 65.4237 52.9033C65.0062 52.9033 64.6323 53.1642 64.4845 53.5556L62.6408 58.4691L57.7273 60.3127Z" fill="white"/>
</svg>
