<svg width="101" height="101" viewBox="0 0 101 101" fill="none" xmlns="http://www.w3.org/2000/svg">
<rect x="0.117188" y="0.117188" width="100" height="100" rx="24.2869" fill="#BB63FF"/>
<path d="M36.3707 22.7194L37.6061 26.5214C37.9908 27.6771 38.6396 28.7271 39.5011 29.588C40.3627 30.4489 41.4131 31.097 42.569 31.4808L46.3746 32.7162L46.4527 32.7375C46.746 32.8407 47 33.0324 47.1796 33.2861C47.3593 33.5398 47.4558 33.8431 47.4558 34.1539C47.4558 34.4648 47.3593 34.768 47.1796 35.0218C47 35.2755 46.746 35.4672 46.4527 35.5704L42.6471 36.8058C41.4908 37.1896 40.4399 37.8377 39.5778 38.6985C38.7157 39.5594 38.0662 40.6094 37.6807 41.7651L36.4488 45.5636C36.3456 45.8569 36.1539 46.1109 35.9002 46.2905C35.6465 46.4702 35.3433 46.5667 35.0324 46.5667C34.7215 46.5667 34.4183 46.4702 34.1646 46.2905C33.9109 46.1109 33.7192 45.8569 33.6159 45.5636L32.3805 41.7651C31.9989 40.6049 31.351 39.5502 30.4885 38.6853C29.6261 37.8204 28.5732 37.1694 27.4141 36.7845L23.6085 35.5491C23.3153 35.4459 23.0613 35.2542 22.8816 35.0005C22.702 34.7467 22.6055 34.4435 22.6055 34.1326C22.6055 33.8218 22.702 33.5185 22.8816 33.2648C23.0613 33.0111 23.3153 32.8194 23.6085 32.7162L27.4141 31.4808C28.5559 31.0867 29.5913 30.434 30.4392 29.5738C31.2872 28.7135 31.9249 27.6689 32.3024 26.5214L33.5378 22.7229C33.6403 22.4285 33.8319 22.1732 34.0861 21.9925C34.3402 21.8119 34.6443 21.7148 34.9561 21.7148C35.2679 21.7148 35.5719 21.8119 35.8261 21.9925C36.0802 22.1732 36.2718 22.4285 36.3743 22.7229M74.9663 35.9183C75.6725 35.9183 76.3497 36.1988 76.849 36.6981C77.3483 37.1974 77.6288 37.8747 77.6288 38.5808V54.5558C77.6288 55.2619 77.3483 55.9391 76.849 56.4385C76.3497 56.9378 75.6725 57.2183 74.9663 57.2183C74.2602 57.2183 73.583 56.9378 73.0837 56.4385C72.5844 55.9391 72.3038 55.2619 72.3038 54.5558V45.0063L57.3228 59.9873C56.8236 60.4859 56.1469 60.766 55.4414 60.766C54.7358 60.766 54.0591 60.4859 53.5598 59.9873L47.4538 53.8813L30.6978 70.6373C30.1931 71.1076 29.5256 71.3636 28.8358 71.3515C28.146 71.3393 27.4879 71.0599 27.0001 70.572C26.5123 70.0842 26.2328 69.4261 26.2207 68.7363C26.2085 68.0466 26.4645 67.379 26.9348 66.8743L45.5723 48.2368C46.0716 47.7382 46.7483 47.4581 47.4538 47.4581C48.1594 47.4581 48.8361 47.7382 49.3353 48.2368L55.4414 54.3428L68.5408 41.2433H58.9913C58.2852 41.2433 57.608 40.9628 57.1087 40.4635C56.6094 39.9642 56.3289 39.2869 56.3289 38.5808C56.3289 37.8747 56.6094 37.1974 57.1087 36.6981C57.608 36.1988 58.2852 35.9183 58.9913 35.9183H74.9663ZM72.3642 67.744L75.0835 68.6244L75.1368 68.6386C75.2933 68.6939 75.435 68.7847 75.5506 68.9039C75.6663 69.023 75.7528 69.1674 75.8033 69.3255C75.8538 69.4837 75.8671 69.6514 75.842 69.8156C75.8169 69.9797 75.7541 70.1358 75.6586 70.2716C75.5294 70.4528 75.347 70.5893 75.1368 70.6621L72.421 71.5425C71.5943 71.817 70.8429 72.2804 70.2267 72.896C69.6104 73.5117 69.1463 74.2626 68.871 75.089L67.9906 77.8012C67.9171 78.0109 67.7803 78.1926 67.599 78.3211C67.4178 78.4496 67.201 78.5187 66.9788 78.5187C66.7566 78.5187 66.5399 78.4496 66.3587 78.3211C66.1774 78.1926 66.0406 78.0109 65.9671 77.8012L65.0831 75.089C64.8104 74.2606 64.3476 73.5074 63.7318 72.8898C63.1161 72.2721 62.3643 71.8071 61.5367 71.5319L58.8209 70.6479C58.6647 70.5923 58.5234 70.5012 58.4081 70.3819C58.2929 70.2626 58.2068 70.1182 58.1566 69.96C58.1064 69.8019 58.0935 69.6343 58.1188 69.4704C58.1442 69.3064 58.2071 69.1505 58.3026 69.0149C58.4309 68.8344 58.612 68.6979 58.8209 68.6244L61.5367 67.744C62.3527 67.4627 63.0925 66.9966 63.6985 66.382C64.3045 65.7674 64.7601 65.021 65.0299 64.2011L65.9138 61.4854C65.9873 61.2757 66.1242 61.094 66.3054 60.9655C66.4867 60.837 66.7034 60.7679 66.9256 60.7679C67.1478 60.7679 67.3645 60.837 67.5458 60.9655C67.727 61.094 67.8639 61.2757 67.9374 61.4854L68.8213 64.2011C69.0956 65.0266 69.5586 65.7766 70.1737 66.3917C70.7887 67.0067 71.5388 67.4698 72.3642 67.744Z" fill="white"/>
</svg>
